<?xml version="1.0" encoding="UTF-8"?>
<svg id="Capa_1" data-name="Capa 1" xmlns="http://www.w3.org/2000/svg" viewBox="0 0 507.6 473.04">
  <defs>
    <style>
      .cls-1 {
        stroke-width: 10.49px;
      }

      .cls-1, .cls-2 {
        fill: #1d1d1b;
        stroke: #1d1d1b;
        stroke-miterlimit: 10;
      }

      .cls-3 {
        letter-spacing: .49em;
      }

      .cls-4 {
        letter-spacing: .5em;
      }

      .cls-2 {
        font-family: Calibri, Calibri;
        font-size: 33.17px;
        stroke-width: .73px;
      }
    </style>
  </defs>
  <g>
    <polygon class="cls-1" points="286.88 219.9 284.85 223.76 305.86 223.76 306.38 221.5 308.51 213.66 310.44 205.11 312.51 198.89 320.75 182.88 325.77 172.11 331.05 160.89 334.18 150.98 338.66 142.52 343.32 135.7 346.82 128.6 349.85 121.95 353.96 117.44 356.89 113.58 357.96 109.43 356.71 105.19 352.39 102.02 347.73 102.32 343.9 105.22 340.67 111.16 336.39 113.81 333.91 118.15 332.72 125.79 327.51 135.15 327.78 140.75 321.94 148.23 317.24 156.22 313.31 162.14 309.11 169.21 304.6 178.6 299.43 186.57 296.28 196.94 290.09 200.92 290.36 206.75 286.65 212.91 286.88 219.9"/>
    <polygon class="cls-1" points="264.84 271.87 261.54 279.56 258.54 285.74 255.75 292.4 252.66 300.9 248.33 304.95 242.92 306.62 239.76 303.72 238.65 295.53 238.04 285.97 236.73 276.84 235.83 271.87 209.07 271.87 210.6 278.27 212.73 284.17 212.05 290.43 214.69 294.71 214.38 303.78 215.99 311.05 215.17 321.5 215.37 329.19 217.64 337.65 219.75 344.01 217.21 350.21 216.95 357.65 218.08 365.37 221.57 372.24 228.67 375.74 235.85 376.92 245.06 373.05 252.73 366.56 256.04 358.52 258.18 350.22 262.55 345.01 265.84 337.44 271.61 332.05 276.3 324.53 277.87 319.23 287.06 302.55 290.61 294.06 293.27 284.61 295.9 275.62 296.24 271.87 264.84 271.87"/>
    <polygon class="cls-1" points="173.8 184.11 178.76 188.71 184.35 195.42 189.23 202.34 190.61 209.6 194.58 216.26 196.4 223.76 225.9 223.76 224.9 221.26 221.49 212.06 217.95 200.07 218.43 186.11 217.36 176.53 212.22 163.55 205.29 155.16 196.83 150.68 189.73 147.41 182.05 147.15 174.92 151.33 170.33 156.29 167.28 163.87 166.08 171.51 169.18 176.27 173.8 184.11"/>
  </g>
  <text class="cls-2" transform="translate(158.64 256.76)"><tspan class="cls-4" x="0" y="0">VIAR</tspan><tspan class="cls-3" x="130.72" y="0">R</tspan><tspan class="cls-4" x="164.99" y="0">Ó</tspan></text>
</svg>